<svg xmlns="http://www.w3.org/2000/svg" width="184" height="148" viewBox="0 0 184 148">
    <defs>
        <clipPath id="clip-path">
            <path id="사각형_664" data-name="사각형 664" style="stroke:#527773;stroke-width:2px;fill:none" d="M0 0h20v20H0z"/>
        </clipPath>
        <filter id="box" x="0" y="0" width="184" height="148" filterUnits="userSpaceOnUse">
            <feOffset dy="3"/>
            <feGaussianBlur stdDeviation="3" result="blur"/>
            <feFlood flood-color="#4b5c6a" flood-opacity=".102"/>
            <feComposite operator="in" in2="blur"/>
            <feComposite in="SourceGraphic"/>
        </filter>
        <style>
            .cls-5{fill:none;stroke:#527773;stroke-width:2px;stroke-miterlimit:10}
        </style>
    </defs>
    <g id="fc_box_smaller_color" transform="translate(9 6)">
        <g transform="translate(-9 -6)" style="filter:url(#box)">
            <g id="box-2" data-name="box" style="fill:#d7eae1;stroke:#527773;stroke-width:2px">
                <path style="stroke:none" d="M0 0h166v130H0z" transform="translate(9 6)"/>
                <path style="fill:none" d="M1 1h164v128H1z" transform="translate(9 6)"/>
            </g>
        </g>
        <g id="그룹_1839" data-name="그룹 1839" transform="translate(-80 -1271)">
            <g id="그룹_1845" data-name="그룹 1845">
                <g id="ico_flowchart_info" transform="translate(206 1323)">
                    <g id="그룹_883" data-name="그룹 883" transform="translate(2 2)">
                        <g id="그룹_882" data-name="그룹 882" style="clip-path:url(#clip-path)">
                            <circle id="타원_113" data-name="타원 113" class="cls-5" cx="9" cy="9" r="9" transform="translate(1 1)"/>
                            <path id="선_136" data-name="선 136" class="cls-5" transform="translate(10 9)" d="M0 0v6"/>
                            <path id="선_137" data-name="선 137" class="cls-5" transform="translate(10 5)" d="M0 0v2"/>
                        </g>
                    </g>
                </g>
                <text id="사고대비물질" transform="translate(96 1323)" style="font-size:20px;font-family:Pretendard-Bold,Pretendard;font-weight:700;fill:#326f5e"><tspan x="1.122" y="19">사고대비물질</tspan></text>
            </g>
            <path id="line" transform="translate(96 1349)" style="fill:#326f5e" d="M0 0h134v1H0z"/>
        </g>
    </g>
</svg>
