<svg xmlns="http://www.w3.org/2000/svg" width="1336" height="2897" viewBox="0 0 1336 2897">
    <defs>
        <filter id="box" x="105" y="554" width="366" height="148" filterUnits="userSpaceOnUse">
            <feOffset dy="3"/>
            <feGaussianBlur stdDeviation="3" result="blur"/>
            <feFlood flood-color="#111" flood-opacity=".102"/>
            <feComposite operator="in" in2="blur"/>
            <feComposite in="SourceGraphic"/>
        </filter>
        <filter id="box-2" x="485" y="554" width="366" height="148" filterUnits="userSpaceOnUse">
            <feOffset dy="3"/>
            <feGaussianBlur stdDeviation="3" result="blur-2"/>
            <feFlood flood-color="#111" flood-opacity=".102"/>
            <feComposite operator="in" in2="blur-2"/>
            <feComposite in="SourceGraphic"/>
        </filter>
        <filter id="box-3" x="865" y="554" width="366" height="148" filterUnits="userSpaceOnUse">
            <feOffset dy="3"/>
            <feGaussianBlur stdDeviation="3" result="blur-3"/>
            <feFlood flood-color="#111" flood-opacity=".102"/>
            <feComposite operator="in" in2="blur-3"/>
            <feComposite in="SourceGraphic"/>
        </filter>
        <filter id="area" x="105" y="94" width="1126" height="148" filterUnits="userSpaceOnUse">
            <feOffset dy="3"/>
            <feGaussianBlur stdDeviation="3" result="blur-4"/>
            <feFlood flood-color="#111" flood-opacity=".102"/>
            <feComposite operator="in" in2="blur-4"/>
            <feComposite in="SourceGraphic"/>
        </filter>
        <filter id="box-4" x="105" y="324" width="556" height="148" filterUnits="userSpaceOnUse">
            <feOffset dy="3"/>
            <feGaussianBlur stdDeviation="3" result="blur-5"/>
            <feFlood flood-color="#111" flood-opacity=".102"/>
            <feComposite operator="in" in2="blur-5"/>
            <feComposite in="SourceGraphic"/>
        </filter>
        <filter id="box-5" x="675" y="324" width="556" height="148" filterUnits="userSpaceOnUse">
            <feOffset dy="3"/>
            <feGaussianBlur stdDeviation="3" result="blur-6"/>
            <feFlood flood-color="#111" flood-opacity=".102"/>
            <feComposite operator="in" in2="blur-6"/>
            <feComposite in="SourceGraphic"/>
        </filter>
        <filter id="다각형_3" x="390" y="964" width="556" height="278" filterUnits="userSpaceOnUse">
            <feOffset dy="3"/>
            <feGaussianBlur stdDeviation="3" result="blur-7"/>
            <feFlood flood-color="#111" flood-opacity=".102"/>
            <feComposite operator="in" in2="blur-7"/>
            <feComposite in="SourceGraphic"/>
        </filter>
        <filter id="box-6" x="865" y="1554" width="366" height="148" filterUnits="userSpaceOnUse">
            <feOffset dy="3"/>
            <feGaussianBlur stdDeviation="3" result="blur-8"/>
            <feFlood flood-color="#111" flood-opacity=".102"/>
            <feComposite operator="in" in2="blur-8"/>
            <feComposite in="SourceGraphic"/>
        </filter>
        <filter id="box-7" x="105" y="2114" width="1126" height="148" filterUnits="userSpaceOnUse">
            <feOffset dy="3"/>
            <feGaussianBlur stdDeviation="3" result="blur-9"/>
            <feFlood flood-color="#111" flood-opacity=".102"/>
            <feComposite operator="in" in2="blur-9"/>
            <feComposite in="SourceGraphic"/>
        </filter>
        <filter id="area-2" x="105" y="2294" width="1126" height="148" filterUnits="userSpaceOnUse">
            <feOffset dy="3"/>
            <feGaussianBlur stdDeviation="3" result="blur-10"/>
            <feFlood flood-color="#111" flood-opacity=".102"/>
            <feComposite operator="in" in2="blur-10"/>
            <feComposite in="SourceGraphic"/>
        </filter>
        <filter id="box-8" x="576" y="734" width="184" height="148" filterUnits="userSpaceOnUse">
            <feOffset dy="3"/>
            <feGaussianBlur stdDeviation="3" result="blur-11"/>
            <feFlood flood-color="#4b5c6a" flood-opacity=".102"/>
            <feComposite operator="in" in2="blur-11"/>
            <feComposite in="SourceGraphic"/>
        </filter>
        <filter id="box-9" x="200" y="1324" width="366" height="148" filterUnits="userSpaceOnUse">
            <feOffset dy="3"/>
            <feGaussianBlur stdDeviation="3" result="blur-12"/>
            <feFlood flood-color="#4b5c6a" flood-opacity=".102"/>
            <feComposite operator="in" in2="blur-12"/>
            <feComposite in="SourceGraphic"/>
        </filter>
        <filter id="box-10" x="105" y="1554" width="366" height="148" filterUnits="userSpaceOnUse">
            <feOffset dy="3"/>
            <feGaussianBlur stdDeviation="3" result="blur-13"/>
            <feFlood flood-color="#4b5c6a" flood-opacity=".102"/>
            <feComposite operator="in" in2="blur-13"/>
            <feComposite in="SourceGraphic"/>
        </filter>
        <filter id="box-11" x="485" y="1554" width="366" height="148" filterUnits="userSpaceOnUse">
            <feOffset dy="3"/>
            <feGaussianBlur stdDeviation="3" result="blur-14"/>
            <feFlood flood-color="#4b5c6a" flood-opacity=".102"/>
            <feComposite operator="in" in2="blur-14"/>
            <feComposite in="SourceGraphic"/>
        </filter>
        <filter id="box-12" x="865" y="1884" width="184" height="148" filterUnits="userSpaceOnUse">
            <feOffset dy="3"/>
            <feGaussianBlur stdDeviation="3" result="blur-15"/>
            <feFlood flood-color="#4b5c6a" flood-opacity=".102"/>
            <feComposite operator="in" in2="blur-15"/>
            <feComposite in="SourceGraphic"/>
        </filter>
        <filter id="box-13" x="1047" y="1884" width="184" height="148" filterUnits="userSpaceOnUse">
            <feOffset dy="3"/>
            <feGaussianBlur stdDeviation="3" result="blur-16"/>
            <feFlood flood-color="#4b5c6a" flood-opacity=".102"/>
            <feComposite operator="in" in2="blur-16"/>
            <feComposite in="SourceGraphic"/>
        </filter>
        <clipPath id="clip-path">
            <path id="사각형_664" data-name="사각형 664" style="stroke-width:2px;stroke:#527773;fill:none" d="M0 0h20v20H0z"/>
        </clipPath>
        <style>
            .cls-13,.cls-28,.cls-34{fill:none}.cls-28{stroke:#527773}.cls-10,.cls-21,.cls-25,.cls-28{stroke-width:2px}.cls-2{fill:#f8f8f8}.cls-11,.cls-15,.cls-23,.cls-24,.cls-29,.cls-32{font-family:Pretendard-Bold,Pretendard;font-weight:700}.cls-4,.cls-7{baseline-shift:5.33279994943018}.cls-14,.cls-23,.cls-24,.cls-5,.cls-6{font-size:16px}.cls-6,.cls-7{font-family:Pretendard-Regular,Pretendard;font-weight:400}.cls-20,.cls-21{fill:#999}.cls-10,.cls-24,.cls-26{fill:#fff}.cls-10,.cls-21{stroke:#999}.cls-11,.cls-15,.cls-23{fill:#333}.cls-11,.cls-29,.cls-32{font-size:20px}.cls-12{fill:red}.cls-12,.cls-26{opacity:0}.cls-13{stroke:#326f5e;stroke-width:1.5px}.cls-14,.cls-29,.cls-30{fill:#326f5e}.cls-14{font-family:Pretendard-Medium,Pretendard;font-weight:500;text-decoration:underline}.cls-15{font-size:24px}.cls-17{font-size:13.999px;baseline-shift:7.999199924145271}.cls-25{fill:#f5faf8;stroke:#6c918e}.cls-27{clip-path:url(#clip-path)}.cls-28{stroke-miterlimit:10}.cls-31,.cls-32{fill:#527773}.cls-33,.cls-35{stroke:none}.cls-35{fill:#999}
        </style>
    </defs>
    <g id="flow_chart" transform="translate(-293 -947)">
        <path id="bg" class="cls-2" d="M0 2897h1336V0H0z" transform="translate(293 947)"/>
        <g id="fc_boxes">
            <g id="bottom_text" transform="translate(0 -305)">
                <text id="_1_대상_제외_또는_당연_면제_면제신청이_별도로_필요하지_않음._다만_면제_증빙서류를_자체적으로_확보_보관_필요._2_면제_여부_확인_면제_신청이_반드시_필요함._3_화학물질_등록_신고_사후관리_서비스_일반적으로_등록_신고_서비스에_포함되어_진행됨." data-name="1) 대상 제외 또는 당연 면제 면제신청이 별도로 필요하지 않음. 다만, 면제 증빙서류를 자체적으로 확보/보관 필요.2) 면제 여부 확인 면제 신청이 반드시 필요함.3) 화학물질 등록/신고 사후관리 서비스 일반적으로 등록/신고 서비스에 포함되어 진행됨." transform="translate(407 3877)" style="font-family:Pretendard-Bold,Pretendard;font-weight:700;fill:#666;font-size:9.333px"><tspan class="cls-4" x="0" y="0" xml:space="preserve">1)          </tspan><tspan class="cls-5" y="0">대상 제외 또는 당연 면제</tspan><tspan class="cls-6"><tspan x="0" y="24">면제신청이 별도로 필요하지 않음. 다만, 면제 증빙서류를 자체적으로 확보/보관 필요.</tspan></tspan><tspan class="cls-7"/>
<tspan class="cls-4" x="0" y="72" xml:space="preserve">2)          </tspan><tspan class="cls-5" y="72">면제 여부 확인</tspan><tspan class="cls-6"><tspan x="0" y="96">면제 신청이 반드시 필요함.</tspan></tspan><tspan class="cls-7"/>
<tspan class="cls-4" x="0" y="144" xml:space="preserve">3)           </tspan><tspan class="cls-5" y="144">화학물질 등록/신고 사후관리 서비스</tspan><tspan class="cls-6"><tspan x="0" y="168">일반적으로 등록/신고 서비스에 포함되어 진행됨.</tspan></tspan></text>
                <path id="사각형_554" data-name="사각형 554" transform="translate(407 3821)" style="fill:#bbb" d="M0 0h1108v1H0z"/>
                <text id="화평법_개정_19.01.01_이후" data-name="화평법 개정(19.01.01) 이후" transform="translate(1515 3797)" style="fill:#999;font-family:Pretendard-Regular,Pretendard;font-size:16px"><tspan x="-171.945" y="0">화평법 개정(19.01.01) 이후</tspan></text>
            </g>
            <g id="fc_box_small" transform="translate(407 1507)">
                <g transform="translate(-114 -560)" style="filter:url(#box)">
                    <g id="box-14" data-name="box" class="cls-10">
                        <path class="cls-33" d="M0 0h348v130H0z" transform="translate(114 560)"/>
                        <path class="cls-34" d="M1 1h346v128H1z" transform="translate(114 560)"/>
                    </g>
                </g>
                <text id="등록_대상_기존_화학물질" data-name="등록 대상 기존 화학물질" class="cls-11" transform="translate(18 53)"><tspan x="62.616" y="19">등록 대상 기존 화학물질</tspan></text>
            </g>
            <g id="fc_box_small_link" transform="translate(787 1507)">
                <g transform="translate(-494 -560)" style="filter:url(#box-2)">
                    <g id="box-15" data-name="box" class="cls-10">
                        <path class="cls-33" d="M0 0h348v130H0z" transform="translate(494 560)"/>
                        <path class="cls-34" d="M1 1h346v128H1z" transform="translate(494 560)"/>
                    </g>
                </g>
                <g id="btn" transform="translate(103 76)">
                    <g id="그룹_668" data-name="그룹 668" transform="translate(-545.845)">
                        <g id="ico_fc_pdf" transform="translate(681.845 2)">
                            <g id="그룹_1025" data-name="그룹 1025" transform="translate(-1101.5 -1126.5)">
                                <path id="패스_6892" data-name="패스 6892" class="cls-13" d="M1108.592 1130.5h7.714l4.286 4.286v7.714h-12z" transform="translate(-3.092)"/>
                                <path id="패스_6891" data-name="패스 6891" class="cls-13" d="M1052.728 2115.047v5h5" transform="translate(59.772 -984.547)"/>
                            </g>
                        </g>
                        <text id="등록_유예기간_상세보기" data-name="등록 유예기간 상세보기" class="cls-14" transform="translate(604.845 18)"><tspan x="-73.077" y="0">등록 유예기간 상세보기</tspan></text>
                    </g>
                </g>
                <text id="기존_화학물질" data-name="기존 화학물질" class="cls-11" transform="translate(18 38)"><tspan x="101.815" y="19">기존 화학물질</tspan></text>
            </g>
            <g id="fc_box_small-2" data-name="fc_box_small" transform="translate(1167 1507)">
                <g transform="translate(-874 -560)" style="filter:url(#box-3)">
                    <g id="box-16" data-name="box" class="cls-10">
                        <path class="cls-33" d="M0 0h348v130H0z" transform="translate(874 560)"/>
                        <path class="cls-34" d="M1 1h346v128H1z" transform="translate(874 560)"/>
                    </g>
                </g>
                <text id="신규_화학물질" data-name="신규 화학물질" class="cls-11" transform="translate(18 53)"><tspan x="101.815" y="19">신규 화학물질</tspan></text>
            </g>
            <g id="fc_start_end_link" transform="translate(407 1047)">
                <g transform="translate(-114 -100)" style="filter:url(#area)">
                    <g id="area-3" data-name="area" class="cls-10" transform="translate(114 100)">
                        <rect class="cls-33" width="1108" height="130" rx="65"/>
                        <rect class="cls-34" x="1" y="1" width="1106" height="128" rx="64"/>
                    </g>
                </g>
                <g id="fc_textlink" transform="translate(671 79)">
                    <g id="stack" transform="translate(-2524.094 20210)">
                        <g id="ico_fc_pdf-2" data-name="ico_fc_pdf" transform="translate(2488.094 -20209)">
                            <g id="그룹_1025-2" data-name="그룹 1025" transform="translate(-1101.5 -1126.5)">
                                <path id="패스_6892-2" data-name="패스 6892" class="cls-13" d="M1108.592 1130.5h7.714l4.286 4.286v7.714h-12z" transform="translate(-3.092)"/>
                                <path id="패스_6891-2" data-name="패스 6891" class="cls-13" d="M1052.728 2115.047v5h5" transform="translate(59.772 -984.547)"/>
                            </g>
                        </g>
                        <text id="적용법_및_면제대상_상세보기" data-name="적용법 및 면제대상 상세보기" class="cls-14" transform="translate(2395.094 -20194)"><tspan x="-88.865" y="0">적용법 및 면제대상 상세보기</tspan></text>
                    </g>
                </g>
                <text id="적용법_및_면제_대상_여부_검토" data-name="적용법 및 면제 대상 여부 검토" class="cls-15" transform="translate(30 36)"><tspan x="385.652" y="23">적용법 및 면제 대상 여부 검토</tspan></text>
            </g>
            <g id="fc_box_medium_link" transform="translate(407 1277)">
                <g transform="translate(-114 -330)" style="filter:url(#box-4)">
                    <g id="box-17" data-name="box" class="cls-10">
                        <path class="cls-33" d="M0 0h538v130H0z" transform="translate(114 330)"/>
                        <path class="cls-34" d="M1 1h536v128H1z" transform="translate(114 330)"/>
                    </g>
                </g>
                <g id="fc_textlink-2" data-name="fc_textlink" transform="translate(386 79)">
                    <g id="stack-2" data-name="stack" transform="translate(-2524.094 20210)">
                        <g id="ico_fc_pdf-3" data-name="ico_fc_pdf" transform="translate(2488.094 -20209)">
                            <g id="그룹_1025-3" data-name="그룹 1025" transform="translate(-1101.5 -1126.5)">
                                <path id="패스_6892-3" data-name="패스 6892" class="cls-13" d="M1108.592 1130.5h7.714l4.286 4.286v7.714h-12z" transform="translate(-3.092)"/>
                                <path id="패스_6891-3" data-name="패스 6891" class="cls-13" d="M1052.728 2115.047v5h5" transform="translate(59.772 -984.547)"/>
                            </g>
                        </g>
                        <text id="화학물질_식별_정보_조회하기" data-name="화학물질 식별 정보 조회하기" class="cls-14" transform="translate(2395.094 -20194)"><tspan x="-88.865" y="0">화학물질 식별 정보 조회하기</tspan></text>
                    </g>
                </g>
                <text id="수입_제조_화학물질_식별정보_확인" data-name="수입/제조 화학물질 식별정보 확인" class="cls-15" transform="translate(30 36)"><tspan x="80.978" y="23">수입/제조 화학물질 식별정보 확인</tspan></text>
            </g>
            <g id="fc_box_medium_no_btn" transform="translate(977 1277)">
                <g transform="translate(-684 -330)" style="filter:url(#box-5)">
                    <g id="box-18" data-name="box" style="fill:#eee;stroke:#999;stroke-width:2px">
                        <path class="cls-33" d="M0 0h538v130H0z" transform="translate(684 330)"/>
                        <path class="cls-34" d="M1 1h536v128H1z" transform="translate(684 330)"/>
                    </g>
                </g>
                <text id="대상_제외_혹은_당연_면제_1_" data-name="대상 제외 혹은 당연 면제 1)" class="cls-15" transform="translate(30 51)"><tspan x="-123.608" y="23">대상 제외 혹은 당연 면제 </tspan><tspan class="cls-17" y="23">1)</tspan></text>
            </g>
            <g id="fc_diamond_link" transform="translate(692 1917)">
                <g transform="translate(-399 -970)" style="filter:url(#다각형_3)">
                    <g id="다각형_3-2" data-name="다각형 3" style="fill:#fff">
                        <path class="cls-33" d="M269 258.89 2.298 130 269 1.11 535.702 130 269 258.89z" transform="translate(399 970)"/>
                        <path class="cls-35" d="M269 2.221 4.596 130 269 257.779 533.404 130 269 2.221M269 0l269 130-269 130L0 130 269 0z" transform="translate(399 970)"/>
                    </g>
                </g>
                <g id="fc_textlink-3" data-name="fc_textlink" transform="translate(386 137)">
                    <g id="stack-3" data-name="stack" transform="translate(-2524.094 20210)">
                        <g id="ico_fc_pdf-4" data-name="ico_fc_pdf" transform="translate(2488.094 -20210)">
                            <g id="그룹_1025-4" data-name="그룹 1025" transform="translate(-1101.5 -1126.5)">
                                <path id="패스_6892-4" data-name="패스 6892" class="cls-13" d="M1108.592 1130.5h7.714l4.286 4.286v7.714h-12z" transform="translate(-3.092)"/>
                                <path id="패스_6891-4" data-name="패스 6891" class="cls-13" d="M1052.728 2115.047v5h5" transform="translate(59.772 -984.547)"/>
                            </g>
                        </g>
                        <text id="적용법_및_면제대상_상세보기-2" data-name="적용법 및 면제대상 상세보기" class="cls-14" transform="translate(2395.094 -20194)"><tspan x="-88.865" y="0">적용법 및 면제대상 상세보기</tspan></text>
                    </g>
                </g>
                <text id="면제_여부_확인_2_" data-name="면제 여부 확인 2)" transform="translate(120 94)" style="fill:#111;font-size:24px;font-family:Pretendard-Bold,Pretendard;font-weight:700"><tspan x="71.438" y="23">면제 여부 확인 </tspan><tspan class="cls-17" y="23">2)</tspan></text>
            </g>
            <g id="fc_box_small-3" data-name="fc_box_small" transform="translate(1167 2507)">
                <g transform="translate(-874 -1560)" style="filter:url(#box-6)">
                    <g id="box-19" data-name="box" class="cls-10">
                        <path class="cls-33" d="M0 0h348v130H0z" transform="translate(874 1560)"/>
                        <path class="cls-34" d="M1 1h346v128H1z" transform="translate(874 1560)"/>
                    </g>
                </g>
                <text id="무게별_등록" data-name="무게별 등록" class="cls-11" transform="translate(18 53)"><tspan x="110.461" y="19">무게별 등록</tspan></text>
            </g>
            <g id="fc_box_big_no_btn" transform="translate(407 3067)">
                <g transform="translate(-114 -2120)" style="filter:url(#box-7)">
                    <g id="box-20" data-name="box" class="cls-10">
                        <path class="cls-33" d="M0 0h1108v130H0z" transform="translate(114 2120)"/>
                        <path class="cls-34" d="M1 1h1106v128H1z" transform="translate(114 2120)"/>
                    </g>
                </g>
                <text id="통지서_수령_3_" data-name="통지서 수령 3)" class="cls-15" transform="translate(30 51)"><tspan x="-63.466" y="23">통지서 수령</tspan><tspan class="cls-17" y="23" xml:space="preserve"> 3)</tspan></text>
            </g>
            <g id="fc_start_end" transform="translate(407 3247)">
                <g transform="translate(-114 -2300)" style="filter:url(#area-2)">
                    <g id="area-4" data-name="area" class="cls-10" transform="translate(114 2300)">
                        <rect class="cls-33" width="1108" height="130" rx="65"/>
                        <rect class="cls-34" x="1" y="1" width="1106" height="128" rx="64"/>
                    </g>
                </g>
                <text id="사후관리" class="cls-15" transform="translate(30 50)"><tspan x="482.497" y="23">사후관리</tspan></text>
            </g>
        </g>
        <g id="fc_line">
            <path id="세로" class="cls-20" transform="translate(1432 2740)" d="M0 0h1v99H0z"/>
            <path id="사각형_520" data-name="사각형 520" class="cls-20" transform="translate(581 3017)" d="M0 0h852v1H0z"/>
            <path id="세로-2" data-name="세로" class="cls-20" transform="translate(676 1407)" d="M0 0h1v50H0z"/>
            <path id="사각형_516" data-name="사각형 516" class="cls-20" transform="translate(581 1457)" d="M0 0h760v1H0z"/>
            <path id="사각형_872" data-name="사각형 872" class="cls-20" transform="translate(580 1866)" d="M0 0h760v1H0z"/>
            <path id="세로-3" data-name="세로" class="cls-20" transform="translate(961 1817)" d="M0 0h1v50H0z"/>
            <path id="세로-4" data-name="세로" class="cls-20" transform="translate(961 1866)" d="M0 0h1v50H0z"/>
            <path id="세로-5" data-name="세로" class="cls-20" transform="translate(961 1177)" d="M0 0h1v50H0z"/>
            <path id="사각형_514" data-name="사각형 514" class="cls-20" transform="translate(676 1227)" d="M0 0h570v1H0z"/>
            <path id="세로-6" data-name="세로" class="cls-20" transform="translate(676 1228)" d="M0 0h1v50H0z"/>
            <path id="세로-7" data-name="세로" class="cls-20" transform="translate(1246 1227)" d="M0 0h1v50H0z"/>
            <path id="세로-8" data-name="세로" class="cls-20" transform="translate(1250 2740)" d="M0 0h1v99H0z"/>
            <path id="사각형_519" data-name="사각형 519" class="cls-20" transform="translate(1250 2739)" d="M0 0h183v1H0z"/>
            <path id="세로-9" data-name="세로" class="cls-20" transform="translate(1250 2967)" d="M0 0h1v50H0z"/>
            <path id="세로-10" data-name="세로" class="cls-20" transform="translate(1432 2967)" d="M0 0h1v50H0z"/>
            <path id="세로-11" data-name="세로" class="cls-20" transform="translate(961 2637)" d="M0 0h1v381H0z"/>
            <path id="세로-12" data-name="세로" class="cls-20" transform="translate(1340 2637)" d="M0 0h1v102H0z"/>
            <path id="세로-13" data-name="세로" class="cls-20" transform="translate(961 3197)" d="M0 0h1v50H0z"/>
            <path id="세로-14" data-name="세로" class="cls-20" transform="translate(961 2175)" d="M0 0h1v50H0z"/>
            <path id="세로-15" data-name="세로" class="cls-20" transform="translate(581 2637)" d="M0 0h1v380H0z"/>
            <g id="타원_68" data-name="타원 68" class="cls-21" transform="translate(671 1272)">
                <circle class="cls-33" cx="5.5" cy="5.5" r="5.5"/>
                <circle class="cls-34" cx="5.5" cy="5.5" r="4.5"/>
            </g>
            <g id="타원_87" data-name="타원 87" class="cls-21" transform="translate(1241 1272)">
                <circle class="cls-33" cx="5.5" cy="5.5" r="5.5"/>
                <circle class="cls-34" cx="5.5" cy="5.5" r="4.5"/>
            </g>
            <g id="타원_92" data-name="타원 92" class="cls-21" transform="translate(956 1913)">
                <circle class="cls-33" cx="5.5" cy="5.5" r="5.5"/>
                <circle class="cls-34" cx="5.5" cy="5.5" r="4.5"/>
            </g>
            <g id="타원_359" data-name="타원 359" class="cls-21" transform="translate(956 2170)">
                <circle class="cls-33" cx="5.5" cy="5.5" r="5.5"/>
                <circle class="cls-34" cx="5.5" cy="5.5" r="4.5"/>
            </g>
            <g id="패스_7153" data-name="패스 7153" style="fill:#999">
                <path class="cls-33" d="M5.5 10A4.505 4.505 0 0 1 1 5.5C1 3.019 3.019 1 5.5 1S10 3.019 10 5.5 7.981 10 5.5 10z" transform="translate(956 3242)"/>
                <path class="cls-35" d="M5.5 2C3.57 2 2 3.57 2 5.5S3.57 9 5.5 9 9 7.43 9 5.5 7.43 2 5.5 2m0-2a5.5 5.5 0 1 1 0 11 5.5 5.5 0 0 1 0-11z" transform="translate(956 3242)"/>
            </g>
            <g id="타원_127" data-name="타원 127" class="cls-21" transform="translate(956 3062)">
                <circle class="cls-33" cx="5.5" cy="5.5" r="5.5"/>
                <circle class="cls-34" cx="5.5" cy="5.5" r="4.5"/>
            </g>
            <path id="세로-16" data-name="세로" class="cls-20" transform="translate(1340 1458)" d="M0 0h1v50H0z"/>
            <path id="세로-17" data-name="세로" class="cls-20" transform="translate(581 1458)" d="M0 0h1v50H0z"/>
            <path id="세로-18" data-name="세로" class="cls-20" transform="translate(580 1637)" d="M0 0h1v230H0z"/>
            <path id="세로-19" data-name="세로" class="cls-20" transform="translate(961 1457)" d="M0 0h1v50H0z"/>
            <path id="세로-20" data-name="세로" class="cls-20" d="M0 0h1v50H0z" transform="translate(961 1637)"/>
            <path id="세로-21" data-name="세로" class="cls-20" transform="translate(1341 1637)" d="M0 0h1v230H0z"/>
            <g id="타원_88" data-name="타원 88" class="cls-21" transform="translate(576 1502)">
                <circle class="cls-33" cx="5.5" cy="5.5" r="5.5"/>
                <circle class="cls-34" cx="5.5" cy="5.5" r="4.5"/>
            </g>
            <g id="타원_89" data-name="타원 89" class="cls-21" transform="translate(956 1502)">
                <circle class="cls-33" cx="5.5" cy="5.5" r="5.5"/>
                <circle class="cls-34" cx="5.5" cy="5.5" r="4.5"/>
            </g>
            <g id="타원_90" data-name="타원 90" class="cls-21" transform="translate(1335 1502)">
                <circle class="cls-33" cx="5.5" cy="5.5" r="5.5"/>
                <circle class="cls-34" cx="5.5" cy="5.5" r="4.5"/>
            </g>
            <path id="사각형_873" data-name="사각형 873" class="cls-20" transform="translate(581 2455)" d="M0 0h760v1H0z"/>
            <path id="세로-22" data-name="세로" class="cls-20" transform="translate(961 3018)" d="M0 0h1v50H0z"/>
            <path id="사각형_874" data-name="사각형 874" class="cls-20" transform="translate(676 2225)" d="M0 0h570v1H0z"/>
            <path id="세로-23" data-name="세로" class="cls-20" transform="translate(676 2226)" d="M0 0h1v50H0z"/>
            <path id="세로-24" data-name="세로" class="cls-20" transform="translate(1245 2226)" d="M0 0h1v230H0z"/>
            <path id="세로-25" data-name="세로" class="cls-20" transform="translate(1340 2456)" d="M0 0h1v50H0z"/>
            <path id="세로-26" data-name="세로" class="cls-20" transform="translate(581 2456)" d="M0 0h1v50H0z"/>
            <path id="세로-27" data-name="세로" class="cls-20" transform="translate(961 2455)" d="M0 0h1v50H0z"/>
            <g id="타원_126" data-name="타원 126" class="cls-21" transform="translate(1335 2502)">
                <circle class="cls-33" cx="5.5" cy="5.5" r="5.5"/>
                <circle class="cls-34" cx="5.5" cy="5.5" r="4.5"/>
            </g>
        </g>
        <g id="fc_yes_tooltip_numbering" transform="translate(0 1)">
            <g id="fc_yes" transform="translate(294 817)">
                <g id="fc_yes-2" data-name="fc_yes" transform="translate(500 397)">
                    <path id="사각형_515" data-name="사각형 515" class="cls-2" d="M0 0h48v27H0z"/>
                    <text id="대상" class="cls-23" transform="translate(24 19)"><tspan x="-13.834" y="0">대상</tspan></text>
                </g>
            </g>
            <g id="fc_yes-3" data-name="fc_yes" transform="translate(580 817)">
                <g id="fc_yes-4" data-name="fc_yes" transform="translate(493 397)">
                    <path id="사각형_515-2" data-name="사각형 515" class="cls-2" d="M0 0h62v27H0z"/>
                    <text id="비대상" class="cls-23" transform="translate(31 19)"><tspan x="-20.751" y="0">비대상</tspan></text>
                </g>
            </g>
            <g id="fc_yes-5" data-name="fc_yes" transform="translate(294 1804)">
                <g id="fc_yes-6" data-name="fc_yes" transform="translate(500 405)">
                    <path id="사각형_515-3" data-name="사각형 515" class="cls-2" d="M0 0h48v27H0z"/>
                    <text id="대상-2" data-name="대상" class="cls-23" transform="translate(24 19)"><tspan x="-13.834" y="0">대상</tspan></text>
                </g>
            </g>
            <g id="fc_yes-7" data-name="fc_yes" transform="translate(579 1804)">
                <g id="fc_yes-8" data-name="fc_yes" transform="translate(493 405)">
                    <path id="사각형_515-4" data-name="사각형 515" class="cls-2" d="M0 0h62v27H0z"/>
                    <text id="비대상-2" data-name="비대상" class="cls-23" transform="translate(31 19)"><tspan x="-20.751" y="0">비대상</tspan></text>
                </g>
            </g>
            <g id="fc_yes-9" data-name="fc_yes" transform="translate(727 2379)">
                <g id="fc_yes-10" data-name="fc_yes" transform="translate(475 397)">
                    <path id="사각형_515-5" data-name="사각형 515" class="cls-2" d="M0 0h98v27H0z"/>
                    <text id="_100kg_미만" data-name="100kg 미만" class="cls-23" transform="translate(49 19)"><tspan x="-39.149" y="0">100kg 미만</tspan></text>
                </g>
            </g>
            <g id="fc_yes-11" data-name="fc_yes" transform="translate(909 2379)">
                <g id="fc_yes-12" data-name="fc_yes" transform="translate(475 397)">
                    <path id="사각형_515-6" data-name="사각형 515" class="cls-2" d="M0 0h98v27H0z"/>
                    <text id="_100kg_이상" data-name="100kg 이상" class="cls-23" transform="translate(49 19)"><tspan x="-39.149" y="0">100kg 이상</tspan></text>
                </g>
            </g>
            <g id="fc_numbering" transform="translate(947 1646)">
                <path id="사각형_515-7" data-name="사각형 515" class="cls-20" d="M0 0h28v28H0z"/>
                <text id="_2" data-name="2" class="cls-24" transform="translate(8 5)"><tspan x="1.116" y="15">2</tspan></text>
            </g>
            <g id="fc_numbering-2" data-name="fc_numbering" transform="translate(1327 1646)">
                <path id="사각형_515-8" data-name="사각형 515" class="cls-20" d="M0 0h28v28H0z"/>
                <text id="_3" data-name="3" class="cls-24" transform="translate(8 5)"><tspan x=".887" y="15">3</tspan></text>
            </g>
            <g id="fc_numbering-3" data-name="fc_numbering" transform="translate(567 2465)">
                <path id="사각형_515-9" data-name="사각형 515" class="cls-20" d="M0 0h28v28H0z"/>
                <text id="_1" data-name="1" class="cls-24" transform="translate(8 5)"><tspan x="2.251" y="15">1</tspan></text>
            </g>
            <g id="fc_numbering-4" data-name="fc_numbering" transform="translate(947 2465)">
                <path id="사각형_515-10" data-name="사각형 515" class="cls-20" d="M0 0h28v28H0z"/>
                <text id="_2-2" data-name="2" class="cls-24" transform="translate(8 5)"><tspan x="1.116" y="15">2</tspan></text>
            </g>
            <g id="fc_numbering-5" data-name="fc_numbering" transform="translate(1327 2465)">
                <path id="사각형_515-11" data-name="사각형 515" class="cls-20" d="M0 0h28v28H0z"/>
                <text id="_3-2" data-name="3" class="cls-24" transform="translate(8 5)"><tspan x=".887" y="15">3</tspan></text>
            </g>
            <g id="fc_numbering-6" data-name="fc_numbering" transform="translate(567 1646)">
                <path id="사각형_515-12" data-name="사각형 515" class="cls-20" d="M0 0h28v28H0z"/>
                <text id="_1-2" data-name="1" class="cls-24" transform="translate(8 5)"><tspan x="2.251" y="15">1</tspan></text>
            </g>
        </g>
        <g id="fc_hover_button">
            <g id="fc_box_smaller_color" transform="translate(878 1687)">
                <g transform="translate(-585 -740)" style="filter:url(#box-8)">
                    <g id="box-21" data-name="box" class="cls-25">
                        <path class="cls-33" d="M0 0h166v130H0z" transform="translate(585 740)"/>
                        <path class="cls-34" d="M1 1h164v128H1z" transform="translate(585 740)"/>
                    </g>
                </g>
                <g id="그룹_1839" data-name="그룹 1839" transform="translate(-80 -1271)">
                    <g id="그룹_1846" data-name="그룹 1846">
                        <g id="ico_flowchart_info" transform="translate(188 1323)">
                            <g id="그룹_883" data-name="그룹 883" transform="translate(2 2)">
                                <g id="그룹_882" data-name="그룹 882" class="cls-27">
                                    <circle id="타원_113" data-name="타원 113" class="cls-28" cx="9" cy="9" r="9" transform="translate(1 1)"/>
                                    <path id="선_136" data-name="선 136" class="cls-28" transform="translate(10 9)" d="M0 0v6"/>
                                    <path id="선_137" data-name="선 137" class="cls-28" transform="translate(10 5)" d="M0 0v2"/>
                                </g>
                            </g>
                        </g>
                        <text id="사전신고" class="cls-29" transform="translate(149 1342)"><tspan x="-34.586" y="0">사전신고</tspan></text>
                    </g>
                    <path id="line" class="cls-30" transform="translate(114 1349)" d="M0 0h98v1H0z"/>
                </g>
            </g>
            <g id="fc_box_small_color" transform="translate(502 2277)">
                <g transform="translate(-209 -1330)" style="filter:url(#box-9)">
                    <g id="box-22" data-name="box" class="cls-25">
                        <path class="cls-33" d="M0 0h348v130H0z" transform="translate(209 1330)"/>
                        <path class="cls-34" d="M1 1h346v128H1z" transform="translate(209 1330)"/>
                    </g>
                </g>
                <g id="그룹_1838" data-name="그룹 1838" transform="translate(-605 -2798)">
                    <g id="그룹_1843" data-name="그룹 1843">
                        <g id="ico_flowchart_info-2" data-name="ico_flowchart_info" transform="translate(843 2850)">
                            <g id="그룹_883-2" data-name="그룹 883" transform="translate(2 2)">
                                <g id="그룹_882-2" data-name="그룹 882" class="cls-27">
                                    <circle id="타원_113-2" data-name="타원 113" class="cls-28" cx="9" cy="9" r="9" transform="translate(1 1)"/>
                                    <path id="선_136-2" data-name="선 136" class="cls-28" transform="translate(10 9)" d="M0 0v6"/>
                                    <path id="선_137-2" data-name="선 137" class="cls-28" transform="translate(10 5)" d="M0 0v2"/>
                                </g>
                            </g>
                        </g>
                        <text id="화학물질_면제_신청" data-name="화학물질 면제 신청" class="cls-29" transform="translate(765 2869)"><tspan x="-73.785" y="0">화학물질 면제 신청</tspan></text>
                    </g>
                    <path id="line-2" data-name="line" class="cls-30" transform="translate(691 2876)" d="M0 0h176v1H0z"/>
                </g>
            </g>
            <g id="fc_box_small_color-2" data-name="fc_box_small_color" transform="translate(407 2507)">
                <g transform="translate(-114 -1560)" style="filter:url(#box-10)">
                    <g id="box-23" data-name="box" class="cls-25">
                        <path class="cls-33" d="M0 0h348v130H0z" transform="translate(114 1560)"/>
                        <path class="cls-34" d="M1 1h346v128H1z" transform="translate(114 1560)"/>
                    </g>
                </g>
                <g id="그룹_1838-2" data-name="그룹 1838" transform="translate(-605 -2798)">
                    <g id="그룹_1843-2" data-name="그룹 1843">
                        <g id="ico_flowchart_info-3" data-name="ico_flowchart_info" transform="translate(804 2850)">
                            <g id="그룹_883-3" data-name="그룹 883" transform="translate(2 2)">
                                <g id="그룹_882-3" data-name="그룹 882" class="cls-27">
                                    <circle id="타원_113-3" data-name="타원 113" class="cls-28" cx="9" cy="9" r="9" transform="translate(1 1)"/>
                                    <path id="선_136-3" data-name="선 136" class="cls-28" transform="translate(10 9)" d="M0 0v6"/>
                                    <path id="선_137-3" data-name="선 137" class="cls-28" transform="translate(10 5)" d="M0 0v2"/>
                                </g>
                            </g>
                        </g>
                        <text id="개별등록" class="cls-29" transform="translate(765 2869)"><tspan x="-34.586" y="0">개별등록</tspan></text>
                    </g>
                    <path id="line-3" data-name="line" class="cls-30" transform="translate(730 2876)" d="M0 0h98v1H0z"/>
                </g>
            </g>
            <g id="fc_box_small_color-3" data-name="fc_box_small_color" transform="translate(787 2507)">
                <g transform="translate(-494 -1560)" style="filter:url(#box-11)">
                    <g id="box-24" data-name="box" class="cls-25">
                        <path class="cls-33" d="M0 0h348v130H0z" transform="translate(494 1560)"/>
                        <path class="cls-34" d="M1 1h346v128H1z" transform="translate(494 1560)"/>
                    </g>
                </g>
                <g id="그룹_1838-3" data-name="그룹 1838" transform="translate(-605 -2798)">
                    <g id="그룹_1843-3" data-name="그룹 1843">
                        <g id="ico_flowchart_info-4" data-name="ico_flowchart_info" transform="translate(804 2850)">
                            <g id="그룹_883-4" data-name="그룹 883" transform="translate(2 2)">
                                <g id="그룹_882-4" data-name="그룹 882" class="cls-27">
                                    <circle id="타원_113-4" data-name="타원 113" class="cls-28" cx="9" cy="9" r="9" transform="translate(1 1)"/>
                                    <path id="선_136-4" data-name="선 136" class="cls-28" transform="translate(10 9)" d="M0 0v6"/>
                                    <path id="선_137-4" data-name="선 137" class="cls-28" transform="translate(10 5)" d="M0 0v2"/>
                                </g>
                            </g>
                        </g>
                        <text id="공동등록" class="cls-29" transform="translate(765 2869)"><tspan x="-34.586" y="0">공동등록</tspan></text>
                    </g>
                    <path id="line-4" data-name="line" class="cls-30" transform="translate(730 2876)" d="M0 0h98v1H0z"/>
                </g>
            </g>
            <g id="fc_box_small_link_color" transform="translate(1167 2837)">
                <g transform="translate(-874 -1890)" style="filter:url(#box-12)">
                    <g id="box-25" data-name="box" class="cls-25">
                        <path class="cls-33" d="M0 0h166v130H0z" transform="translate(874 1890)"/>
                        <path class="cls-34" d="M1 1h164v128H1z" transform="translate(874 1890)"/>
                    </g>
                </g>
                <path id="line-5" data-name="line" class="cls-31" transform="translate(52 79)" d="M0 0h63v1H0z"/>
                <g id="text" transform="translate(-115)">
                    <g id="ic_info" transform="translate(206 53)">
                        <g id="그룹_883-5" data-name="그룹 883" transform="translate(2 2)">
                            <g id="그룹_882-5" data-name="그룹 882" class="cls-27">
                                <circle id="타원_113-5" data-name="타원 113" class="cls-28" cx="9" cy="9" r="9" transform="translate(1 1)"/>
                                <path id="선_136-5" data-name="선 136" class="cls-28" transform="translate(10 9)" d="M0 0v6"/>
                                <path id="선_137-5" data-name="선 137" class="cls-28" transform="translate(10 5)" d="M0 0v2"/>
                            </g>
                        </g>
                    </g>
                    <text id="신고" class="cls-32" transform="translate(167 53)"><tspan x="0" y="19">신고</tspan></text>
                </g>
            </g>
            <g id="fc_box_small_link_color-2" data-name="fc_box_small_link_color" transform="translate(1349 2837)">
                <g transform="translate(-1056 -1890)" style="filter:url(#box-13)">
                    <g id="box-26" data-name="box" class="cls-25">
                        <path class="cls-33" d="M0 0h166v130H0z" transform="translate(1056 1890)"/>
                        <path class="cls-34" d="M1 1h164v128H1z" transform="translate(1056 1890)"/>
                    </g>
                </g>
                <path id="line-6" data-name="line" class="cls-31" transform="translate(52 79)" d="M0 0h63v1H0z"/>
                <g id="text-2" data-name="text" transform="translate(-115)">
                    <g id="ic_info-2" data-name="ic_info" transform="translate(206 53)">
                        <g id="그룹_883-6" data-name="그룹 883" transform="translate(2 2)">
                            <g id="그룹_882-6" data-name="그룹 882" class="cls-27">
                                <circle id="타원_113-6" data-name="타원 113" class="cls-28" cx="9" cy="9" r="9" transform="translate(1 1)"/>
                                <path id="선_136-6" data-name="선 136" class="cls-28" transform="translate(10 9)" d="M0 0v6"/>
                                <path id="선_137-6" data-name="선 137" class="cls-28" transform="translate(10 5)" d="M0 0v2"/>
                            </g>
                        </g>
                    </g>
                    <text id="등록" class="cls-32" transform="translate(167 53)"><tspan x="0" y="19">등록</tspan></text>
                </g>
            </g>
            <g id="타원_91" data-name="타원 91" class="cls-21" transform="translate(956 1682)">
                <circle class="cls-33" cx="5.5" cy="5.5" r="5.5"/>
                <circle class="cls-34" cx="5.5" cy="5.5" r="4.5"/>
            </g>
            <g id="타원_128" data-name="타원 128" class="cls-21" transform="translate(671 2272)">
                <circle class="cls-33" cx="5.5" cy="5.5" r="5.5"/>
                <circle class="cls-34" cx="5.5" cy="5.5" r="4.5"/>
            </g>
            <g id="타원_124" data-name="타원 124" class="cls-21" transform="translate(576 2502)">
                <circle class="cls-33" cx="5.5" cy="5.5" r="5.5"/>
                <circle class="cls-34" cx="5.5" cy="5.5" r="4.5"/>
            </g>
            <g id="타원_125" data-name="타원 125" class="cls-21" transform="translate(956 2502)">
                <circle class="cls-33" cx="5.5" cy="5.5" r="5.5"/>
                <circle class="cls-34" cx="5.5" cy="5.5" r="4.5"/>
            </g>
            <g id="타원_97" data-name="타원 97" class="cls-21" transform="translate(1245 2832)">
                <circle class="cls-33" cx="5.5" cy="5.5" r="5.5"/>
                <circle class="cls-34" cx="5.5" cy="5.5" r="4.5"/>
            </g>
            <g id="타원_98" data-name="타원 98" class="cls-21" transform="translate(1427 2832)">
                <circle class="cls-33" cx="5.5" cy="5.5" r="5.5"/>
                <circle class="cls-34" cx="5.5" cy="5.5" r="4.5"/>
            </g>
        </g>
    </g>
</svg>
