<svg id="gnb_logo_color" xmlns="http://www.w3.org/2000/svg" width="110" height="36"><defs><clipPath id="clip-path"><path id="사각형_819" data-name="사각형 819" fill="none" d="M0 0h110v35.572H0z"/></clipPath></defs><g id="그룹_1002" data-name="그룹 1002" clip-path="url(#clip-path)"><path id="패스_3771" data-name="패스 3771" d="M15.645 13.114h-2.5L7.689 4.755a8.968 8.968 0 01-.553-.955H7.1a18.962 18.962 0 01.067 1.912v7.4H4.889V.773h2.666l5.265 8.14q.4.621.587.956h.033a12.451 12.451 0 01-.067-1.727V.773h2.272z" transform="translate(-3.617 -.572)" fill="#6b6b6c"/><path id="패스_3772" data-name="패스 3772" d="M64.148 13.114h-2.607l-1-2.951h-4.634l-.972 2.951h-2.608L56.9.773h2.758zm-4.2-4.846L58.439 3.8a6.264 6.264 0 01-.193-1.023h-.059a5.409 5.409 0 01-.209 1.006L56.46 8.268z" transform="translate(-38.714 -.572)" fill="#6b6b6c"/><path id="패스_3773" data-name="패스 3773" d="M115.246 13.114V5.468q0-.838.1-2.565h-.05a10.016 10.016 0 01-.386 1.509l-3.27 8.7h-1.819l-3.311-8.625a14.271 14.271 0 01-.386-1.585h-.059q.092 1.367.092 2.968v7.244h-2.171V.773h3.437l2.884 7.688a8.845 8.845 0 01.478 1.694h.059q.184-.729.52-1.71l2.91-7.672h3.337v12.341z" transform="translate(-76.935 -.572)" fill="#6b6b6c"/><path id="패스_3774" data-name="패스 3774" d="M197.175 11.1a6.55 6.55 0 01-4.46 1.643 5.069 5.069 0 01-3.3-.993 3.324 3.324 0 01-1.215-2.721q0-2.422 2.951-3.622a3.289 3.289 0 01-1.484-2.574 2.48 2.48 0 01.98-2.075A4.149 4.149 0 01193.251 0a3.867 3.867 0 012.456.742 2.333 2.333 0 01.948 1.924q0 1.878-2.239 2.817a7.107 7.107 0 013.077 2.758 6.67 6.67 0 001.333-4.158 3.984 3.984 0 00-.159-1.182h2.046a3.913 3.913 0 01.151 1.14 8.375 8.375 0 01-2.314 5.718 2.651 2.651 0 001.861 1.132 3.5 3.5 0 001.442-.318v1.836a4.785 4.785 0 01-1.777.335 3.8 3.8 0 01-2.9-1.643m-1.04-1.509a7.461 7.461 0 00-3.572-3.186 2.752 2.752 0 00-2 2.54 1.807 1.807 0 00.625 1.438 2.39 2.39 0 001.622.541 4.719 4.719 0 003.329-1.333m-3.2-5q1.626-.586 1.626-1.752a1.1 1.1 0 00-.39-.884 1.374 1.374 0 00-.918-.331 1.514 1.514 0 00-1.065.369 1.181 1.181 0 00-.4.905 1.968 1.968 0 001.149 1.694" transform="translate(-139.238)" fill="#6b6b6c"/><path id="패스_3775" data-name="패스 3775" d="M281.485 13.114h-2.5l-5.458-8.358a8.969 8.969 0 01-.553-.956h-.034a18.965 18.965 0 01.067 1.912v7.4h-2.28V.773h2.666l5.265 8.14q.4.621.587.956h.033a12.494 12.494 0 01-.067-1.727V.773h2.272z" transform="translate(-200.3 -.572)" fill="#6b6b6c"/><path id="패스_3776" data-name="패스 3776" d="M329.988 13.114h-2.607l-1-2.951h-4.636l-.972 2.951h-2.607l4.57-12.341h2.758zm-4.2-4.846L324.279 3.8a6.3 6.3 0 01-.193-1.023h-.059a5.39 5.39 0 01-.209 1.006L322.3 8.268z" transform="translate(-235.397 -.572)" fill="#6b6b6c"/><path id="패스_3777" data-name="패스 3777" d="M381.086 13.114V5.468q0-.838.1-2.565h-.05a10.023 10.023 0 01-.385 1.509l-3.27 8.7h-1.82l-3.311-8.625a14.345 14.345 0 01-.386-1.585h-.059Q372 4.269 372 5.87v7.244h-2.171V.773h3.437l2.884 7.688a8.865 8.865 0 01.478 1.694h.059q.185-.729.52-1.71l2.906-7.672h3.337v12.341z" transform="translate(-273.618 -.572)" fill="#6b6b6c"/><path id="사각형_817" data-name="사각형 817" transform="translate(2.402 23.196)" fill="#6b6b6c" d="M0 0h2.355v12.161H0z"/><path id="패스_3778" data-name="패스 3778" d="M38.76 110.63h-2.3v-4.866q0-2.231-1.611-2.231a1.637 1.637 0 00-1.318.607 2.319 2.319 0 00-.508 1.541v4.949h-2.3v-8.683h2.3v1.4h.025a3.087 3.087 0 012.817-1.6q2.891 0 2.892 3.577z" transform="translate(-22.729 -75.273)" fill="#6b6b6c"/><path id="패스_3779" data-name="패스 3779" d="M75.007 103.7a3.673 3.673 0 01-1.636.3q-2.668 0-2.668-2.826v-4.313h-1.438V95.11H70.7v-1.942L73 92.5v2.61h2.008v1.752H73v3.908q0 1.437 1.132 1.437a1.569 1.569 0 00.876-.264z" transform="translate(-51.246 -68.436)" fill="#6b6b6c"/><path id="패스_3780" data-name="패스 3780" d="M105.567 106.937h-5.8a2.178 2.178 0 002.512 2.214 4.515 4.515 0 002.578-.76v1.752a6.1 6.1 0 01-3.1.7 4.166 4.166 0 01-3.152-1.173 4.54 4.54 0 01-1.128-3.28 4.716 4.716 0 011.21-3.358 3.974 3.974 0 013.028-1.293 3.64 3.64 0 012.834 1.116 4.381 4.381 0 011.016 3.065zm-2.173-1.512q0-2.065-1.7-2.066a1.689 1.689 0 00-1.252.562 2.626 2.626 0 00-.673 1.5z" transform="translate(-72.12 -75.273)" fill="#6b6b6c"/><path id="패스_3781" data-name="패스 3781" d="M142.876 104.235a2.135 2.135 0 00-1.116-.273 1.639 1.639 0 00-1.388.707 3.126 3.126 0 00-.521 1.9v4.23h-2.3v-8.683h2.3v1.669h.025a2.329 2.329 0 012.289-1.817 1.7 1.7 0 01.71.116z" transform="translate(-101.765 -75.438)" fill="#6b6b6c"/><path id="패스_3782" data-name="패스 3782" d="M173.525 110.63h-2.3v-4.866q0-2.231-1.611-2.231a1.637 1.637 0 00-1.318.607 2.319 2.319 0 00-.508 1.541v4.949h-2.3v-8.683h2.3v1.4h.025a3.087 3.087 0 012.817-1.6q2.891 0 2.892 3.577z" transform="translate(-122.435 -75.273)" fill="#6b6b6c"/><path id="패스_3783" data-name="패스 3783" d="M205.706 102.5a5.46 5.46 0 011.52-.55 7.713 7.713 0 011.677-.21q3.52 0 3.52 3.569v5.321h-2.2v-1.28h-.041a2.833 2.833 0 01-2.6 1.5 2.753 2.753 0 01-1.991-.706 2.507 2.507 0 01-.735-1.9q0-2.486 2.958-2.883l2.421-.33a1.45 1.45 0 00-1.619-1.661 4.937 4.937 0 00-2.908.967zm2.8 4.164q-1.488.19-1.487 1.33a1.075 1.075 0 00.355.835 1.373 1.373 0 00.958.322 1.772 1.772 0 001.363-.583 2.078 2.078 0 00.537-1.466v-.661z" transform="translate(-151.563 -75.273)" fill="#6b6b6c"/><path id="패스_3784" data-name="패스 3784" d="M247.3 103.7a3.673 3.673 0 01-1.636.3q-2.669 0-2.669-2.826v-4.313h-1.437V95.11h1.437v-1.942l2.3-.669v2.611h2.005v1.752h-2.008v3.908q0 1.437 1.132 1.437a1.569 1.569 0 00.876-.264z" transform="translate(-178.717 -68.436)" fill="#6b6b6c"/><path id="패스_3785" data-name="패스 3785" d="M271.237 88.021a1.167 1.167 0 01.376-.884 1.356 1.356 0 01.971-.355 1.389 1.389 0 01.967.351 1.146 1.146 0 01.388.888 1.164 1.164 0 01-.384.892 1.375 1.375 0 01-.971.355 1.342 1.342 0 01-.967-.364 1.178 1.178 0 01-.38-.884m.182 2.858h2.3v8.683h-2.3z" transform="translate(-200.676 -64.206)" fill="#6b6b6c"/><path id="패스_3786" data-name="패스 3786" d="M290.155 106.343a4.506 4.506 0 011.256-3.367 4.643 4.643 0 013.4-1.235 4.16 4.16 0 014.478 4.453 4.625 4.625 0 01-1.243 3.383 5.1 5.1 0 01-6.671.049 4.429 4.429 0 01-1.223-3.284m2.33-.033q0 2.735 2.272 2.735 2.189 0 2.189-2.8 0-2.71-2.2-2.71a2.021 2.021 0 00-1.669.739 3.164 3.164 0 00-.595 2.036" transform="translate(-214.672 -75.273)" fill="#6b6b6c"/><path id="패스_3787" data-name="패스 3787" d="M342.8 110.63h-2.3v-4.866q0-2.231-1.611-2.231a1.637 1.637 0 00-1.318.607 2.319 2.319 0 00-.508 1.541v4.949h-2.3v-8.683h2.3v1.4h.025a3.086 3.086 0 012.817-1.6q2.892 0 2.892 3.577z" transform="translate(-247.677 -75.273)" fill="#6b6b6c"/><path id="패스_3788" data-name="패스 3788" d="M374.985 102.5a5.46 5.46 0 011.52-.55 7.711 7.711 0 011.677-.21q3.52 0 3.52 3.569v5.321h-2.2v-1.28h-.041a2.833 2.833 0 01-2.6 1.5 2.753 2.753 0 01-1.991-.706 2.507 2.507 0 01-.735-1.9q0-2.486 2.958-2.883l2.421-.33a1.45 1.45 0 00-1.619-1.661 4.937 4.937 0 00-2.908.967zm2.8 4.164q-1.487.19-1.487 1.33a1.075 1.075 0 00.355.835 1.372 1.372 0 00.958.322 1.772 1.772 0 001.363-.583 2.08 2.08 0 00.537-1.466v-.661z" transform="translate(-276.804 -75.273)" fill="#6b6b6c"/><path id="사각형_818" data-name="사각형 818" transform="translate(107.703 22.51)" fill="#6b6b6c" d="M0 0h2.297v12.847H0z"/><path id="패스_3789" data-name="패스 3789" d="M0 66.515A1.186 1.186 0 111.186 67.7 1.186 1.186 0 010 66.515" transform="translate(0 -48.334)" fill="#a37211" fill-rule="evenodd"/><path id="패스_3790" data-name="패스 3790" d="M28 66.515a1.186 1.186 0 111.186 1.185A1.186 1.186 0 0128 66.515" transform="translate(-20.716 -48.334)" fill="#a37211" fill-rule="evenodd"/><path id="패스_3791" data-name="패스 3791" d="M57 66.515a1.186 1.186 0 111.186 1.185A1.186 1.186 0 0157 66.515" transform="translate(-42.172 -48.334)" fill="#a37211" fill-rule="evenodd"/><path id="패스_3792" data-name="패스 3792" d="M84 66.515a1.186 1.186 0 111.186 1.185A1.186 1.186 0 0184 66.515" transform="translate(-62.148 -48.334)" fill="#a37211" fill-rule="evenodd"/><path id="패스_3793" data-name="패스 3793" d="M113 66.515a1.186 1.186 0 111.186 1.186A1.186 1.186 0 01113 66.515" transform="translate(-83.603 -48.334)" fill="#a37211" fill-rule="evenodd"/><path id="패스_3794" data-name="패스 3794" d="M141 66.515a1.186 1.186 0 111.186 1.186A1.186 1.186 0 01141 66.515" transform="translate(-104.319 -48.334)" fill="#a37211" fill-rule="evenodd"/><path id="패스_3795" data-name="패스 3795" d="M170 66.515a1.186 1.186 0 111.186 1.186A1.186 1.186 0 01170 66.515" transform="translate(-125.775 -48.334)" fill="#a37211" fill-rule="evenodd"/><path id="패스_3796" data-name="패스 3796" d="M198 66.515a1.186 1.186 0 111.186 1.186A1.186 1.186 0 01198 66.515" transform="translate(-146.491 -48.334)" fill="#a37211" fill-rule="evenodd"/><path id="패스_3797" data-name="패스 3797" d="M227 66.515a1.186 1.186 0 111.186 1.186A1.186 1.186 0 01227 66.515" transform="translate(-167.947 -48.334)" fill="#a37211" fill-rule="evenodd"/><path id="패스_3798" data-name="패스 3798" d="M255 66.515a1.186 1.186 0 111.186 1.186A1.186 1.186 0 01255 66.515" transform="translate(-188.663 -48.334)" fill="#a37211" fill-rule="evenodd"/><path id="패스_3799" data-name="패스 3799" d="M283 66.515a1.186 1.186 0 111.186 1.186A1.186 1.186 0 01283 66.515" transform="translate(-209.379 -48.334)" fill="#a37211" fill-rule="evenodd"/></g></svg>